<?xml version="1.0" encoding="UTF-8"?><svg id="Layer_2" xmlns="http://www.w3.org/2000/svg" viewBox="0 0 694.5 113.81"><defs><style>.cls-1{fill:#08235a;}.cls-2{fill:#f2b705;}</style></defs><g id="Layer_1-2"><g><path class="cls-1" d="M144.79,76.88c17.71,0,28.09-13.87,28.09-28.02v-2.99h-31.29v10.74h15.72c-1.64,5.4-6.33,8.46-12.59,8.46-8.89,0-14.44-7.04-14.44-15.79s5.9-15.29,14.37-15.29c5.05,0,9.1,2.49,11.59,6.83h15.08c-2.99-10.6-14.44-18.63-26.31-18.63-15.29,0-28.16,11.17-28.16,27.1s12.37,27.59,27.95,27.59Z"/><polygon class="cls-1" points="201.98 75.81 209.87 41.74 210.01 41.74 217.91 75.81 229.71 75.81 243.65 23.18 230.07 23.18 222.89 57.53 222.74 57.53 215.13 23.18 204.82 23.18 197.07 57.39 196.93 57.39 189.89 23.18 176.23 23.18 189.82 75.81 201.98 75.81"/><polygon class="cls-1" points="300.98 64.01 285.4 64.01 285.4 23.18 271.96 23.18 271.96 75.81 300.98 75.81 300.98 64.01"/><path class="cls-1" d="M321.46,68.2h18.28l2.56,7.61h14.58l-20.91-52.63h-10.6l-21.12,52.63h14.44l2.77-7.61Zm9.1-28.66l.21,.07,5.4,17.92h-11.02l5.4-17.99Z"/><polygon class="cls-1" points="374.8 43.66 395 75.81 406.67 75.81 406.67 23.18 393.79 23.18 394.36 56.47 373.88 23.18 362.29 23.18 362.29 75.81 375.16 75.81 374.8 43.66"/><path class="cls-1" d="M461.08,49.5c0-10.74-4.69-18.85-12.16-23.11-3.7-2.06-8.89-3.2-15.43-3.2h-17.92v52.63h18.85c16.43,0,26.67-8.96,26.67-26.31Zm-32.08-14.51h6.12c7.75,0,12.52,5.19,12.52,14.58s-4.84,14.44-12.59,14.44h-6.05v-29.02Z"/><path class="cls-1" d="M485.04,76.81c11.38,0,18.35-5.97,18.35-16.14,0-6.9-2.92-11.1-14.51-16.07-5.76-2.49-8.61-3.91-8.61-7.04,0-2.35,2.13-4.12,4.62-4.12,2.63,0,4.2,1.35,4.76,5.12h13.3c-.07-7.04-2.77-11.24-8.39-14.15-2.77-1.42-5.83-2.2-9.32-2.2-9.67,0-18.35,6.54-18.35,15.5,0,6.83,3.91,11.38,12.52,14.86,4.77,1.92,10.6,3.77,10.6,7.97,0,2.84-2.28,5.05-5.05,5.05-3.34,0-5.48-2.84-5.55-7.18h-13.37v1.14c0,11.31,7.54,17.28,18.99,17.28Z"/><path class="cls-1" d="M535.4,76.81c12.45,0,23.33-8.04,26.6-20.7h-14.08c-2.77,5.9-7.33,8.89-12.66,8.89-8.32,0-14.15-7.11-14.15-15.65s5.69-15.36,14.08-15.36c5.48,0,10.45,3.41,12.73,9.17h14.08c-.92-5.4-3.91-10.24-8.89-14.51-5.26-4.48-11.09-6.47-18.35-6.47-15.08,0-27.1,12.59-27.1,26.53,0,7.97,2.42,14.65,8.11,20.2,5.4,5.33,12.3,7.89,19.63,7.89Z"/><path class="cls-1" d="M579.21,68.2h18.28l2.56,7.61h14.58l-20.91-52.63h-10.6l-21.12,52.63h14.44l2.77-7.61Zm9.1-28.66l.21,.07,5.4,17.92h-11.02l5.4-17.99Z"/><path class="cls-1" d="M632.91,59.31h6.26c15.08,0,20.48-8.61,20.48-18.35,0-7.11-3.56-13.16-9.25-15.79-2.77-1.28-6.97-2.06-12.59-1.99h-17.78v52.63h12.87v-16.5Zm0-24.32h5.26c5.97,0,8.61,1.92,8.61,6.19,0,4.48-2.7,6.33-8.11,6.33h-5.76v-12.52Z"/><polygon class="cls-1" points="694.5 34.99 694.5 23.18 665.27 23.18 665.27 75.81 694.5 75.81 694.5 64.01 678.14 64.01 678.14 54.97 694 54.97 694 43.17 678.14 43.17 678.14 34.99 694.5 34.99"/><path class="cls-2" d="M655.46,93.58c-3.22-.15-5.37-.05-7.45,.05-2.5,.12-4.86,.23-9.24-.05-5.12-.33-8.09-.9-11.24-1.49-3.24-.61-6.59-1.25-12.22-1.6-4.2-.27-6.51-.18-9.19-.09-1.99,.07-4.24,.15-7.71,.08-10.43-.21-16.45-1.44-21.28-2.44-4.12-.85-7.68-1.58-12.4-1.43-8.51,.27-12.63,3.21-16.61,6.05-4.28,3.05-8.7,6.21-20.4,7.11-4.16,.32-6.9,.17-10.07,0-3.38-.18-7.22-.39-13.33,0-11.71,.73-17.03,2.65-21.73,4.35-3.58,1.3-6.41,2.32-11.75,2.61-11.78,.65-25.16-3.02-38.1-6.57-13.17-3.62-26.79-7.36-38.99-6.58-5.29,.34-8.22,1.37-11.06,2.36-3.03,1.06-5.89,2.07-12.28,2.27-5.63,.18-9.66-.41-13.94-1.04-4.54-.67-9.23-1.36-16.14-1.28-7.82,.09-11.86,1.11-15.77,2.09-3.13,.79-6.08,1.53-11.17,1.78-12.22,.61-24.05-2.28-35.5-5.08-11.33-2.77-23.04-5.64-34.88-4.97-5.73,.32-8.52,1.29-11.47,2.33-3.12,1.09-6.65,2.32-15.44,3.1-6.76,.6-11.4,.48-16.3,.35-4.94-.13-10.04-.26-17.22,.42-7.78,.74-11.51,1.83-15.11,2.89-2.98,.87-6.06,1.77-11.82,2.54-10.06,1.35-23.23,1.61-39.13,.77v7.01c16.17,.83,29.65,.55,40.06-.84,6.29-.84,9.63-1.82,12.86-2.77,3.44-1.01,6.69-1.96,13.81-2.64,6.76-.65,11.43-.52,16.38-.4,4.89,.12,9.94,.26,17.1-.38,9.66-.86,13.8-2.3,17.13-3.46,2.69-.94,4.81-1.68,9.56-1.95,10.8-.61,21.5,2.01,32.83,4.78,11.93,2.92,24.28,5.94,37.51,5.28,5.78-.29,9.21-1.15,12.52-1.99,3.68-.92,7.15-1.8,14.15-1.88,6.35-.07,10.77,.58,15.04,1.21,4.39,.65,8.93,1.32,15.18,1.11,7.47-.24,11.14-1.53,14.38-2.67,2.61-.92,4.86-1.71,9.19-1.98,11.03-.7,23.5,2.72,36.69,6.34,12.37,3.4,25.13,6.9,37.14,6.9,1.07,0,2.14-.03,3.2-.09,6.37-.35,9.95-1.65,13.75-3.02,4.46-1.61,9.07-3.28,19.78-3.95,5.7-.35,9.17-.17,12.52,.01,3.27,.18,6.36,.34,10.98-.01,13.65-1.05,19.35-5.12,23.93-8.39,3.7-2.64,6.37-4.55,12.76-4.75,3.88-.12,6.93,.5,10.77,1.29,5.11,1.05,11.48,2.36,22.55,2.58,3.67,.07,6.02-.01,8.1-.09,2.6-.09,4.65-.17,8.5,.08,5.2,.33,8.19,.9,11.36,1.5,3.21,.61,6.54,1.24,12.09,1.6,4.78,.31,7.45,.18,10.03,.06,2-.1,3.9-.19,6.79-.05,9.4,.44,13.47,2.46,18.18,4.8,4.77,2.37,10.18,5.04,21.19,5.97v-7.03c-9.26-.85-13.55-2.97-18.07-5.21-4.97-2.47-10.1-5.02-20.97-5.52Z"/></g><g><path class="cls-2" d="M69.58,58.78l34.75-6.61-34.63-6.59,7.09-18.04-18.04,7.09L52.17,0l-6.61,34.75-18.36-7.21,7.11,18.1L0,52.17l34.44,6.55-7.24,18.42,18.42-7.24,6.55,34.44,6.53-34.31,18.1,7.11-7.21-18.36Zm-17.37,3.52c-5.46,0-9.88-4.43-9.88-9.88s4.43-9.88,9.88-9.88,9.88,4.43,9.88,9.88-4.43,9.88-9.88,9.88Z"/><rect class="cls-1" x="31.29" y="14.21" width=".75" height="4.51" transform="translate(-4.02 15.88) rotate(-26.54)"/><rect class="cls-1" x="16.18" y="29.24" width=".75" height="4.51" transform="translate(-19 30.09) rotate(-60)"/><rect class="cls-1" x="14.21" y="72.29" width="4.51" height=".75" transform="translate(-34.13 17.97) rotate(-30)"/><rect class="cls-1" x="29.24" y="87.4" width="4.51" height=".75" transform="translate(-60.26 71.17) rotate(-60)"/><rect class="cls-1" x="72.29" y="85.61" width=".75" height="4.51" transform="translate(-34.2 48.11) rotate(-30)"/><rect class="cls-1" x="87.4" y="70.58" width=".75" height="4.51" transform="translate(-19.19 112.43) rotate(-60)"/><rect class="cls-1" x="85.61" y="31.29" width="4.51" height=".75" transform="translate(-4.06 48.18) rotate(-30)"/><rect class="cls-1" x="70.58" y="16.18" width="4.51" height=".75" transform="translate(22.08 71.36) rotate(-60)"/><rect class="cls-1" x="47.73" y="10.46" width=".6" height="3.01" transform="translate(-.99 5.09) rotate(-6)"/><rect class="cls-1" x="43.55" y="11.11" width=".6" height="3.01" transform="translate(-1.66 9.39) rotate(-12)"/><rect class="cls-1" x="39.47" y="12.19" width=".6" height="3.01" transform="translate(-2.29 12.96) rotate(-18)"/><rect class="cls-1" x="35.51" y="13.7" width=".6" height="3.01" transform="translate(-3.09 15.88) rotate(-24)"/><rect class="cls-1" x="28.19" y="17.91" width=".6" height="3.01" transform="translate(-5.97 20.45) rotate(-36)"/><rect class="cls-1" x="24.89" y="20.56" width=".6" height="3.01" transform="translate(-8.3 22.52) rotate(-42)"/><rect class="cls-1" x="21.89" y="23.55" width=".6" height="3.01" transform="translate(-11.27 24.78) rotate(-48)"/><rect class="cls-1" x="19.22" y="26.83" width=".6" height="3.01" transform="translate(-14.87 27.47) rotate(-54)"/><rect class="cls-1" x="14.98" y="34.14" width=".6" height="3.01" transform="translate(-23.49 35.11) rotate(-66)"/><rect class="cls-1" x="13.46" y="38.08" width=".6" height="3.01" transform="translate(-28.14 40.44) rotate(-72)"/><rect class="cls-1" x="12.35" y="42.17" width=".6" height="3.01" transform="translate(-32.7 46.97) rotate(-78)"/><rect class="cls-1" x="11.68" y="46.34" width=".6" height="3.01" transform="translate(-36.86 54.76) rotate(-84)"/><rect class="cls-1" x="10.46" y="56" width="3.01" height=".6" transform="translate(-5.82 1.56) rotate(-6)"/><rect class="cls-1" x="11.11" y="60.18" width="3.01" height=".6" transform="translate(-12.3 3.94) rotate(-12)"/><rect class="cls-1" x="12.19" y="64.27" width="3.01" height=".6" transform="translate(-19.28 7.39) rotate(-18)"/><rect class="cls-1" x="13.7" y="68.22" width="3.01" height=".6" transform="translate(-26.55 12.11) rotate(-24)"/><rect class="cls-1" x="17.91" y="75.55" width="3.01" height=".6" transform="translate(-40.87 25.9) rotate(-36)"/><rect class="cls-1" x="20.56" y="78.84" width="3.01" height=".6" transform="translate(-47.29 35.09) rotate(-42)"/><rect class="cls-1" x="23.55" y="81.84" width="3.01" height=".6" transform="translate(-52.75 45.79) rotate(-48)"/><rect class="cls-1" x="26.83" y="84.51" width="3.01" height=".6" transform="translate(-56.93 57.88) rotate(-54)"/><rect class="cls-1" x="34.14" y="88.75" width="3.01" height=".6" transform="translate(-60.21 85.39) rotate(-66)"/><rect class="cls-1" x="38.08" y="90.28" width="3.01" height=".6" transform="translate(-58.79 100.24) rotate(-72)"/><rect class="cls-1" x="42.17" y="91.38" width="3.01" height=".6" transform="translate(-55.09 115.34) rotate(-78)"/><rect class="cls-1" x="46.34" y="92.05" width="3.01" height=".6" transform="translate(-49 130.29) rotate(-84)"/><rect class="cls-1" x="56" y="90.87" width=".6" height="3.01" transform="translate(-9.35 6.39) rotate(-6)"/><rect class="cls-1" x="60.18" y="90.22" width=".6" height="3.01" transform="translate(-17.75 14.58) rotate(-12)"/><rect class="cls-1" x="64.27" y="89.13" width=".6" height="3.01" transform="translate(-24.85 24.39) rotate(-18)"/><rect class="cls-1" x="68.22" y="87.62" width=".6" height="3.01" transform="translate(-30.33 35.58) rotate(-24)"/><rect class="cls-1" x="75.55" y="83.42" width=".6" height="3.01" transform="translate(-35.43 60.8) rotate(-36)"/><rect class="cls-1" x="78.84" y="80.76" width=".6" height="3.01" transform="translate(-34.72 74.09) rotate(-42)"/><rect class="cls-1" x="81.84" y="77.78" width=".6" height="3.01" transform="translate(-31.74 87.27) rotate(-48)"/><rect class="cls-1" x="84.51" y="74.5" width=".6" height="3.01" transform="translate(-26.53 99.94) rotate(-54)"/><rect class="cls-1" x="88.75" y="67.19" width=".6" height="3.01" transform="translate(-9.92 122.1) rotate(-66)"/><rect class="cls-1" x="90.28" y="63.24" width=".6" height="3.01" transform="translate(1.01 130.88) rotate(-72)"/><rect class="cls-1" x="91.38" y="59.16" width=".6" height="3.01" transform="translate(13.28 137.73) rotate(-78)"/><rect class="cls-1" x="92.05" y="54.98" width=".6" height="3.01" transform="translate(26.52 142.43) rotate(-84)"/><rect class="cls-1" x="90.87" y="47.73" width="3.01" height=".6" transform="translate(-4.52 9.92) rotate(-6)"/><rect class="cls-1" x="90.22" y="43.55" width="3.01" height=".6" transform="translate(-7.11 20.03) rotate(-12)"/><rect class="cls-1" x="89.13" y="39.47" width="3.01" height=".6" transform="translate(-7.85 29.95) rotate(-18)"/><rect class="cls-1" x="87.62" y="35.51" width="3.01" height=".6" transform="translate(-6.86 39.35) rotate(-24)"/><rect class="cls-1" x="83.42" y="28.19" width="3.01" height=".6" transform="translate(-.53 55.36) rotate(-36)"/><rect class="cls-1" x="80.76" y="24.89" width="3.01" height=".6" transform="translate(4.27 61.52) rotate(-42)"/><rect class="cls-1" x="77.78" y="21.89" width="3.01" height=".6" transform="translate(9.74 66.26) rotate(-48)"/><rect class="cls-1" x="74.5" y="19.22" width="3.01" height=".6" transform="translate(15.53 69.53) rotate(-54)"/><rect class="cls-1" x="67.19" y="14.98" width="3.01" height=".6" transform="translate(26.79 71.82) rotate(-66)"/><rect class="cls-1" x="63.24" y="13.46" width="3.01" height=".6" transform="translate(31.65 71.08) rotate(-72)"/><rect class="cls-1" x="59.16" y="12.35" width="3.01" height=".6" transform="translate(35.67 69.36) rotate(-78)"/><rect class="cls-1" x="54.98" y="11.68" width="3.01" height=".6" transform="translate(38.67 66.9) rotate(-84)"/></g></g></svg>